<svg width="59" height="31" viewBox="0 0 59 31" fill="none" xmlns="http://www.w3.org/2000/svg">
<mask id="mask0_33_407" style="mask-type:luminance" maskUnits="userSpaceOnUse" x="6" y="8" width="53" height="23">
<path d="M51.7599 8.33667C56.0025 10.0185 59 14.1331 59 18.9421C59 25.2474 53.8472 30.3592 47.4909 30.3592C43.9806 30.3592 40.8356 28.7985 38.7246 26.3388C36.2503 28.6022 33.0927 29.9932 29.7409 30.2965C26.3891 30.5997 23.03 29.7983 20.1838 28.0163C18.2594 29.6213 15.7993 30.454 13.2873 30.3506C10.7754 30.2473 8.39325 29.2154 6.60944 27.4579L16.9856 21.5149C17.3515 21.7325 17.7571 21.8762 18.1792 21.9377C18.6013 21.9993 19.0315 21.9775 19.445 21.8735C19.8586 21.7695 20.2473 21.5855 20.5889 21.332C20.9305 21.0785 21.2182 20.7605 21.4355 20.3963H34.8277C35.2552 21.0529 35.9095 21.5323 36.6679 21.7446C37.4263 21.9568 38.2366 21.8873 38.9471 21.5491C39.6575 21.211 40.2192 20.6273 40.5267 19.9076C40.8343 19.188 40.8667 18.3817 40.6178 17.64L49.8122 8.51936C50.4649 8.65852 51.145 8.59472 51.7599 8.33667Z" fill="white"/>
</mask>
<g mask="url(#mask0_33_407)">
<path d="M59 8.33667H6.60944V30.3592H59V8.33667Z" fill="url(#paint0_linear_33_407)"/>
</g>
<path opacity="0.3" fill-rule="evenodd" clip-rule="evenodd" d="M38.2059 21.7998C38.6531 21.7072 39.0754 21.5218 39.4453 21.2557C39.8151 20.9897 40.124 20.6491 40.3517 20.2562C40.5794 19.8634 40.7207 19.4272 40.7664 18.9763C40.8121 18.5254 40.7611 18.07 40.6168 17.64L44.8139 13.4765C46.3467 12.7157 48.315 12.2431 50.5626 12.8542C55.9684 14.3246 57.7866 23.0486 49.9521 26.0446C43.5222 28.5031 40.0882 24.9484 38.2059 21.7998ZM20.6413 21.2921C20.9602 21.0454 21.2295 20.7415 21.4355 20.3963H34.8277C35.0593 20.7524 35.3596 21.0594 35.7114 21.2998C36.0632 21.5402 36.4595 21.7092 36.8774 21.797C36.333 23.5162 34.8221 25.7885 30.6405 26.0012C24.7784 26.2994 21.5179 23.6865 20.6413 21.2921ZM9.42578 25.8447L16.9856 21.5149C17.4946 21.8177 18.0777 21.9757 18.6712 21.9718C19.2647 21.9679 19.8457 21.8022 20.3506 21.4927C19.7943 26.6151 15.1641 29.3418 11.3282 27.5581C11.3282 27.5581 10.3931 26.9459 9.42578 25.8447Z" fill="#5E147D"/>
<mask id="mask1_33_407" style="mask-type:luminance" maskUnits="userSpaceOnUse" x="3" y="0" width="45" height="26">
<path d="M47.4905 7.52495C47.5483 7.52495 47.6055 7.52622 47.6625 7.52697L37.8126 17.9144L18.5435 18.39L5.28919 25.8564C4.20697 24.2279 3.63154 22.3196 3.63453 20.3691C3.63453 14.852 8.1432 10.3791 13.7049 10.3791C13.7477 10.3791 13.7899 10.3804 13.8321 10.3809C15.8569 4.34931 21.5929 6.10352e-05 28.3529 6.10352e-05C34.5002 6.10352e-05 39.7995 3.5966 42.233 8.7836C43.8592 7.95392 45.6619 7.52235 47.4905 7.52495Z" fill="white"/>
</mask>
<g mask="url(#mask1_33_407)">
<path d="M47.6632 0.00012207H3.63477V25.8564H47.6632V0.00012207Z" fill="url(#paint1_linear_33_407)"/>
</g>
<path opacity="0.3" fill-rule="evenodd" clip-rule="evenodd" d="M40.8768 14.6829L37.8124 17.9143L18.5433 18.3899L8.24732 24.1899C7.69 23.1899 7.28962 21.9946 7.3176 20.6385C7.4046 16.3993 11.5027 11.9892 17.3445 13.4596C17.3445 13.4596 19.1314 7.40477 26.9787 6.88597C33.9839 6.42268 39.112 10.5088 40.8768 14.6831" fill="#0131B9"/>
<path opacity="0.3" fill-rule="evenodd" clip-rule="evenodd" d="M47.4904 7.52484C47.5482 7.52484 47.6054 7.5261 47.6624 7.52686L37.8125 17.9142L18.5434 18.3899L5.28909 25.8562C5.02301 25.4558 4.78634 25.0368 4.58093 24.6026L15.4361 18.3843C15.5131 17.7388 15.7859 17.1316 16.2183 16.6432C16.6508 16.1548 17.2225 15.8081 17.8579 15.649C18.4933 15.4899 19.1624 15.5259 19.7767 15.7522C20.391 15.9786 20.9215 16.3846 21.2982 16.9165H34.8278C35.1211 16.4653 35.5238 16.0943 35.999 15.8375C36.4742 15.5806 37.0068 15.446 37.548 15.4462C37.6497 15.4462 37.7515 15.4509 37.8532 15.4605L45.7167 7.65959C46.3034 7.56977 46.8962 7.52472 47.4899 7.52484" fill="#020C6A"/>
<mask id="mask2_33_407" style="mask-type:luminance" maskUnits="userSpaceOnUse" x="0" y="2" width="54" height="28">
<path d="M50.4952 2.46686C50.8658 2.46697 51.2319 2.54779 51.5676 2.70362C51.9033 2.85944 52.2004 3.08647 52.4379 3.36867C52.6755 3.65088 52.8477 3.98137 52.9424 4.33682C53.0371 4.69227 53.052 5.06402 52.986 5.4258C52.92 5.78758 52.7748 6.13058 52.5605 6.43058C52.3463 6.73058 52.0682 6.98027 51.7461 7.16201C51.4239 7.34375 51.0655 7.45311 50.696 7.48238C50.3266 7.51165 49.9552 7.4601 49.608 7.33138L39.7846 17.0763C39.9429 17.3733 40.0395 17.6988 40.0687 18.0335C40.0979 18.3682 40.0592 18.7053 39.9548 19.0248C39.8504 19.3444 39.6824 19.64 39.4608 19.894C39.2392 20.1481 38.9685 20.3554 38.6647 20.5039C38.3609 20.6523 38.0302 20.7387 37.6921 20.7581C37.354 20.7775 37.0154 20.7295 36.6964 20.6168C36.3774 20.5041 36.0844 20.329 35.8348 20.102C35.5852 19.875 35.384 19.6006 35.2431 19.2951H21.0001C20.851 19.6632 20.6162 19.9911 20.3148 20.2519C20.0134 20.5126 19.654 20.6989 19.2661 20.7953C18.8782 20.8918 18.4728 20.8958 18.083 20.8069C17.6933 20.718 17.3303 20.5388 17.0238 20.284L5.05377 27.1397C5.06039 27.2136 5.06395 27.2886 5.06395 27.3645C5.06394 27.9285 4.87262 28.476 4.52079 28.919C4.16896 29.362 3.6771 29.6746 3.12439 29.8065C2.57168 29.9385 1.99029 29.8821 1.47383 29.6464C0.957365 29.4107 0.53588 29.0095 0.277236 28.5073C0.0185916 28.0051 -0.0621621 27.4311 0.0479768 26.8779C0.158116 26.3246 0.452738 25.8242 0.884408 25.4573C1.31608 25.0903 1.85968 24.8781 2.42768 24.8549C2.99569 24.8317 3.55505 24.9987 4.0157 25.3292L16.1185 18.3973V18.3589C16.1185 17.7953 16.3096 17.2481 16.661 16.8052C17.0124 16.3623 17.5038 16.0495 18.056 15.9172C18.6083 15.7848 19.1894 15.8405 19.7059 16.0754C20.2224 16.3103 20.6443 16.7106 20.9037 17.2121H35.2436C35.4849 16.688 35.9003 16.262 36.4204 16.0053C36.9404 15.7486 37.5335 15.6769 38.1004 15.802L48.1238 5.8585C47.9808 5.4785 47.9326 5.0698 47.9834 4.66732C48.0342 4.26484 48.1825 3.88055 48.4156 3.54728C48.6487 3.21401 48.9596 2.94167 49.3218 2.75352C49.6841 2.56538 50.0869 2.46702 50.4957 2.46686" fill="white"/>
</mask>
<g mask="url(#mask2_33_407)">
<path d="M53.0273 2.46686H0.00012207V29.8763H53.0273V2.46686Z" fill="url(#paint2_linear_33_407)"/>
</g>
<defs>
<linearGradient id="paint0_linear_33_407" x1="53.6613" y1="36.9043" x2="13.0441" y2="2.16106" gradientUnits="userSpaceOnUse">
<stop stop-color="#FF00FF"/>
<stop offset="1" stop-color="#0000FF"/>
</linearGradient>
<linearGradient id="paint1_linear_33_407" x1="23.6156" y1="-4.93531" x2="27.0461" y2="25.689" gradientUnits="userSpaceOnUse">
<stop stop-color="#00FFFF"/>
<stop offset="1" stop-color="#0000FF"/>
</linearGradient>
<linearGradient id="paint2_linear_33_407" x1="2.86862" y1="47.679" x2="48.462" y2="-14.0574" gradientUnits="userSpaceOnUse">
<stop stop-color="#0000FF"/>
<stop offset="1" stop-color="#00FFFF"/>
</linearGradient>
</defs>
</svg>
